<?xml version="1.0" encoding="iso-8859-1"?>
<!-- Generator: Adobe Illustrator 25.0.1, SVG Export Plug-In . SVG Version: 6.00 Build 0)  -->
<svg version="1.1" xmlns="http://www.w3.org/2000/svg" xmlns:xlink="http://www.w3.org/1999/xlink" x="0px" y="0px"
	 viewBox="0 0 465 465" style="enable-background:new 0 0 465 465;" xml:space="preserve">
<g id="Capa_1">
	<g style="opacity:0.85;">
		<path style="fill:#FF9926;" d="M239.029,323.909c0,3.607-2.923,6.529-6.529,6.529v13.059c3.606,0,6.529,2.923,6.529,6.529v49.114
			l179.543-113.057L239.029,71.974V323.909z M363.524,278.256c3.84,0,6.965,3.125,6.965,6.965s-3.125,6.965-6.965,6.965
			c-3.84,0-6.965-3.125-6.965-6.965S359.683,278.256,363.524,278.256z M337.406,252.138c3.84,0,6.965,3.125,6.965,6.965
			c0,3.84-3.125,6.965-6.965,6.965c-3.84,0-6.965-3.125-6.965-6.965C330.441,255.262,333.566,252.138,337.406,252.138z"/>
		<path style="fill:#FECC33;" d="M225.97,323.909V71.973L46.427,286.083L225.97,399.14v-49.114c0-3.607,2.923-6.529,6.529-6.529
			v-13.059C228.893,330.438,225.97,327.516,225.97,323.909z"/>
		<path d="M433.386,283.425L237.503,49.829c-0.064-0.077-0.134-0.144-0.201-0.217c-0.047-0.05-0.092-0.102-0.14-0.151
			c-0.208-0.213-0.426-0.412-0.655-0.59c-0.021-0.016-0.043-0.03-0.064-0.045c-0.228-0.173-0.466-0.326-0.71-0.467
			c-0.043-0.024-0.084-0.05-0.127-0.073c-0.268-0.145-0.544-0.271-0.827-0.376c-0.017-0.006-0.03-0.016-0.047-0.022
			c-0.03-0.01-0.059-0.015-0.089-0.024c-0.27-0.093-0.544-0.172-0.822-0.229c-0.031-0.006-0.062-0.016-0.093-0.022
			c-0.286-0.055-0.575-0.085-0.865-0.101c-0.069-0.003-0.138-0.007-0.207-0.009c-0.29-0.007-0.581,0-0.87,0.031
			c-0.018,0.002-0.036,0.006-0.054,0.009c-0.28,0.033-0.558,0.088-0.834,0.158c-0.05,0.013-0.101,0.024-0.151,0.038
			c-0.285,0.079-0.565,0.175-0.839,0.294c-0.031,0.014-0.061,0.03-0.091,0.044c-0.24,0.109-0.474,0.234-0.703,0.373
			c-0.055,0.033-0.11,0.064-0.163,0.099c-0.221,0.144-0.438,0.298-0.645,0.471c-0.019,0.016-0.036,0.034-0.054,0.05
			c-0.044,0.037-0.084,0.079-0.127,0.118c-0.197,0.178-0.38,0.366-0.551,0.562c-0.024,0.028-0.052,0.05-0.076,0.077L31.613,283.425
			c-1.212,1.445-1.739,3.344-1.448,5.207c0.292,1.863,1.376,3.508,2.971,4.514L229.02,416.494c0.049,0.03,0.101,0.051,0.151,0.08
			c0.162,0.096,0.326,0.184,0.495,0.265c0.101,0.049,0.202,0.098,0.305,0.141c0.166,0.07,0.336,0.129,0.508,0.185
			c0.107,0.035,0.212,0.073,0.32,0.102c0.185,0.05,0.373,0.085,0.562,0.119c0.094,0.017,0.186,0.04,0.281,0.053
			c0.286,0.038,0.575,0.06,0.864,0.06c0.066,0,0.131-0.011,0.198-0.014c0.214-0.007,0.428-0.017,0.641-0.044
			c0.124-0.017,0.246-0.047,0.37-0.071c0.158-0.03,0.318-0.057,0.474-0.1c0.125-0.033,0.247-0.079,0.371-0.12
			c0.155-0.051,0.31-0.104,0.461-0.167c0.116-0.049,0.229-0.105,0.343-0.162c0.097-0.047,0.196-0.084,0.291-0.137
			c0.058-0.032,0.11-0.073,0.167-0.107c0.051-0.03,0.106-0.052,0.158-0.084l195.884-123.347c1.596-1.005,2.68-2.651,2.971-4.514
			C435.126,286.769,434.598,284.871,433.386,283.425z M239.029,399.14v-49.114c0-3.607-2.923-6.529-6.529-6.529
			c-3.606,0-6.529,2.923-6.529,6.529v49.114L46.427,286.083L225.97,71.973v251.936c0,3.607,2.923,6.529,6.529,6.529
			c3.606,0,6.529-2.923,6.529-6.529V71.974l179.543,214.109L239.029,399.14z"/>
		<path d="M363.524,292.185c3.84,0,6.965-3.125,6.965-6.965s-3.125-6.965-6.965-6.965c-3.84,0-6.965,3.125-6.965,6.965
			S359.683,292.185,363.524,292.185z"/>
		<path d="M337.406,266.067c3.84,0,6.965-3.125,6.965-6.965c0-3.84-3.125-6.965-6.965-6.965c-3.84,0-6.965,3.125-6.965,6.965
			C330.441,262.943,333.566,266.067,337.406,266.067z"/>
	</g>
</g>
<g id="Calque_2">
	<g>
		<g>
			<g>
				<path style="fill:#FFDF11;" d="M199.5,376.018c-1.366,0-2.672-0.559-3.615-1.546s-1.442-2.317-1.379-3.682
					c4.628-101.404,27.5-165.559,86.632-240.543H132.194c-2.761,0-5-2.239-5-5V93.982c0-2.761,2.239-5,5-5h200.612
					c2.762,0,5,2.239,5,5v22.146c0,1.212-0.44,2.382-1.238,3.294c-75.049,85.708-90.203,149.482-94.295,251.796
					c-0.107,2.682-2.312,4.8-4.996,4.8H199.5z"/>
				<path d="M332.806,93.982v22.146c-73.384,83.805-91.187,146.334-95.53,254.89l-37.777,0
					c4.776-104.648,29.092-168.479,92.055-245.771h-159.36V93.982H332.806 M332.806,83.982H132.194c-5.523,0-10,4.477-10,10v31.264
					c0,5.523,4.477,10,10,10h138.739c-55.216,72.491-76.909,136.387-81.424,235.315c-0.125,2.728,0.872,5.389,2.759,7.364
					c1.887,1.975,4.499,3.092,7.23,3.092l37.777,0c5.367,0,9.777-4.237,9.992-9.6c4.045-101.118,19.002-164.125,93.061-248.702
					c1.597-1.823,2.477-4.164,2.477-6.588V93.982C342.806,88.459,338.329,83.982,332.806,83.982L332.806,83.982z"/>
			</g>
		</g>
	</g>
</g>
</svg>
